<svg width="509" height="442" viewBox="0 0 509 442" fill="none" xmlns="http://www.w3.org/2000/svg">
<rect width="509" height="442" fill="white"/>
<path d="M288.516 100.801L282.397 97.8134H186.72C186.593 98.801 186.544 99.8019 186.575 100.801H173.494L173.653 101.115H289.148L288.516 100.801ZM288.516 100.801H173.494L173.653 101.115H289.148L288.516 100.801ZM288.516 100.801H173.494L173.653 101.115H289.148L288.516 100.801ZM289.148 101.115L288.516 100.801H173.494L173.653 101.115H289.148ZM58.3812 431.698C54.2075 431.69 50.2067 429.611 47.2555 425.916C44.3044 422.221 42.6435 417.212 42.6372 411.987V30.0294C42.6408 24.8016 44.3003 19.7889 47.2517 16.0907C50.2031 12.3925 54.2055 10.3106 58.3812 10.3017H82.9201V7H58.3812C53.5067 7.01146 48.8347 9.44199 45.3892 13.7588C41.9436 18.0757 40.0056 23.9267 40 30.0294V411.987C40.0042 416.402 41.0218 420.722 42.9318 424.434C44.8417 428.145 47.5635 431.091 50.7728 432.92H283.083C282.872 432.524 282.661 432.111 282.45 431.698H58.3812ZM442.936 105.011C441.224 102.736 439.158 100.924 436.865 99.6863C434.573 98.4485 432.102 97.8111 429.605 97.8134H175.116L160.876 69.4518L160.532 68.7583L148.455 44.7055L134.925 17.7636C133.267 14.4724 130.971 11.7597 128.251 9.87781C125.531 7.99591 122.474 7.00594 119.366 7H58.3812C53.5067 7.01146 48.8347 9.44199 45.3892 13.7588C41.9436 18.0757 40.0056 23.9267 40 30.0294V411.987C40.0042 416.402 41.0218 420.722 42.9318 424.434C44.8417 428.145 47.5635 431.091 50.7728 432.92C53.1586 434.295 55.7546 435.005 58.3812 435H429.605C432.236 435.005 434.837 434.295 437.227 432.92C440.436 431.09 443.158 428.145 445.068 424.433C446.978 420.722 447.996 416.402 448 411.987V120.843C448.003 114.946 446.189 109.275 442.936 105.011ZM445.363 411.987C445.356 417.215 443.693 422.226 440.739 425.921C437.785 429.616 433.781 431.694 429.605 431.698H58.3812C54.2075 431.69 50.2067 429.611 47.2555 425.916C44.3043 422.221 42.6435 417.212 42.6372 411.987V30.0294C42.6408 24.8016 44.3003 19.7889 47.2517 16.0907C50.2031 12.3925 54.2055 10.3106 58.3812 10.3017H119.366C122.032 10.2926 124.655 11.1354 126.988 12.7503C129.321 14.3652 131.286 16.6987 132.697 19.53L145.329 44.7055L157.408 68.7583L159.675 73.2816L173.494 100.801L173.653 101.115H429.605C433.783 101.119 437.789 103.199 440.744 106.898C443.698 110.597 445.359 115.612 445.363 120.843V411.987ZM288.516 100.801H173.494L173.653 101.115H289.148L288.516 100.801ZM288.516 100.801H173.494L173.653 101.115H289.148L288.516 100.801ZM288.516 100.801H173.494L173.653 101.115H289.148L288.516 100.801ZM288.516 100.801L282.397 97.8134H175.116L160.876 69.4518L159.675 73.2817L173.494 100.801L173.653 101.115H289.148L288.516 100.801Z" fill="black"/>
<path d="M288.516 100.801L282.397 97.8134H186.72C186.593 98.801 186.544 99.8019 186.575 100.801H173.494L173.653 101.115H289.148L288.516 100.801ZM288.516 100.801H173.494L173.653 101.115H289.148L288.516 100.801ZM288.516 100.801H173.494L173.653 101.115H289.148L288.516 100.801ZM289.148 101.115L288.516 100.801H173.494L173.653 101.115H289.148ZM58.3812 431.698C54.2075 431.69 50.2067 429.611 47.2555 425.916C44.3044 422.221 42.6435 417.212 42.6372 411.987V30.0294C42.6408 24.8016 44.3003 19.7889 47.2517 16.0907C50.2031 12.3925 54.2055 10.3106 58.3812 10.3017H82.9201V7H58.3812C53.5067 7.01146 48.8347 9.44199 45.3892 13.7588C41.9436 18.0757 40.0056 23.9267 40 30.0294V411.987C40.0042 416.402 41.0218 420.722 42.9318 424.434C44.8417 428.145 47.5635 431.091 50.7728 432.92H283.083C282.872 432.524 282.661 432.111 282.45 431.698H58.3812ZM442.936 105.011C441.224 102.736 439.158 100.924 436.865 99.6863C434.573 98.4485 432.102 97.8111 429.605 97.8134H175.116L160.876 69.4518L160.532 68.7583L148.455 44.7055L134.925 17.7636C133.267 14.4724 130.971 11.7597 128.251 9.87781C125.531 7.99591 122.474 7.00594 119.366 7H58.3812C53.5067 7.01146 48.8347 9.44199 45.3892 13.7588C41.9436 18.0757 40.0056 23.9267 40 30.0294V411.987C40.0042 416.402 41.0218 420.722 42.9318 424.434C44.8417 428.145 47.5635 431.091 50.7728 432.92C53.1586 434.295 55.7546 435.005 58.3812 435H429.605C432.236 435.005 434.837 434.295 437.227 432.92C440.436 431.09 443.158 428.145 445.068 424.433C446.978 420.722 447.996 416.402 448 411.987V120.843C448.003 114.946 446.189 109.275 442.936 105.011ZM445.363 411.987C445.356 417.215 443.693 422.226 440.739 425.921C437.785 429.616 433.781 431.694 429.605 431.698H58.3812C54.2075 431.69 50.2067 429.611 47.2555 425.916C44.3043 422.221 42.6435 417.212 42.6372 411.987V30.0294C42.6408 24.8016 44.3003 19.7889 47.2517 16.0907C50.2031 12.3925 54.2055 10.3106 58.3812 10.3017H119.366C122.032 10.2926 124.655 11.1354 126.988 12.7503C129.321 14.3652 131.286 16.6987 132.697 19.53L145.329 44.7055L157.408 68.7583L159.675 73.2816L173.494 100.801L173.653 101.115H429.605C433.783 101.119 437.789 103.199 440.744 106.898C443.698 110.597 445.359 115.612 445.363 120.843V411.987ZM288.516 100.801H173.494L173.653 101.115H289.148L288.516 100.801ZM288.516 100.801H173.494L173.653 101.115H289.148L288.516 100.801ZM288.516 100.801H173.494L173.653 101.115H289.148L288.516 100.801ZM288.516 100.801L282.397 97.8134H175.116L160.876 69.4518L159.675 73.2817L173.494 100.801L173.653 101.115H289.148L288.516 100.801Z" fill="black" fill-opacity="0.2"/>
<path d="M271.607 143.062C271.075 142.935 270.516 143.005 270.033 143.258C269.549 143.512 269.174 143.932 268.978 144.441C268.782 144.949 268.777 145.512 268.965 146.023C269.153 146.535 269.521 146.961 270.001 147.222C277.708 151.514 284.488 157.285 289.95 164.203C315.417 196.453 306.525 245.811 270.089 274.449C253.909 287.39 233.737 294.343 213 294.126C237.465 301.004 266.343 295.592 289.614 277.302C326.05 248.665 334.942 199.306 309.475 167.056C299.909 155.045 286.571 146.593 271.607 143.062Z" fill="#3F3D56"/>
<path d="M289.928 164.389C315.658 196.929 306.674 246.731 269.861 275.625C256.372 286.332 240.134 293.046 223 295C243.463 294.878 263.286 287.878 279.259 275.132C316.071 246.238 325.055 196.436 299.325 163.896C292.026 154.69 282.458 147.526 271.552 143.101L271.383 143.059C270.847 142.935 270.283 143.008 269.797 143.265C269.311 143.522 268.935 143.947 268.738 144.459C268.542 144.972 268.539 145.538 268.73 146.052C268.921 146.567 269.292 146.995 269.775 147.258C277.561 151.588 284.41 157.411 289.928 164.389Z" fill="#6C63FF"/>
<path d="M177 114L192 140L207 166H177H147L162 140L177 114Z" fill="#6C63FF"/>
<path d="M231.999 114L247 140L262 166H231.999H202L217 140L231.999 114Z" fill="#6C63FF"/>
<path d="M175.501 127L184.75 143.501L194 160H175.501H157L166.25 143.501L175.501 127Z" fill="#3F3D56"/>
<path d="M231.5 127L240.75 143.501L250 160H231.5H213L222.25 143.501L231.5 127Z" fill="#3F3D56"/>
<path d="M311 299.996C311.001 324.121 302.773 347.524 287.674 366.34C272.575 385.156 251.51 398.259 227.958 403.484C204.406 408.709 179.776 405.744 158.137 395.078C136.498 384.412 119.144 366.684 108.943 344.822C98.7418 322.96 96.3032 298.273 102.03 274.838C107.757 251.402 121.306 230.622 140.44 215.928C159.574 201.235 183.148 193.508 207.268 194.024C231.387 194.54 254.609 203.268 273.097 218.767C284.965 228.715 294.509 241.144 301.057 255.177C307.606 269.211 311 284.509 311 299.996Z" fill="#3F3D56"/>
<path opacity="0.1" d="M272 218.853C263.145 242.09 236.05 259 204 259C171.95 259 144.855 242.09 136 218.853C155.057 202.799 179.132 194 204 194C228.868 194 252.943 202.799 272 218.853Z" fill="black"/>
<path d="M204 251C243.212 251 275 225.704 275 194.5C275 163.296 243.212 138 204 138C164.788 138 133 163.296 133 194.5C133 225.704 164.788 251 204 251Z" fill="#3F3D56"/>
<path d="M171.5 199C178.956 199 185 193.18 185 186C185 178.82 178.956 173 171.5 173C164.044 173 158 178.82 158 186C158 193.18 164.044 199 171.5 199Z" fill="white"/>
<path d="M237.5 199C244.956 199 251 193.18 251 186C251 178.82 244.956 173 237.5 173C230.044 173 224 178.82 224 186C224 193.18 230.044 199 237.5 199Z" fill="white"/>
<path d="M171.5 194C176.194 194 180 190.418 180 186C180 181.582 176.194 178 171.5 178C166.806 178 163 181.582 163 186C163 190.418 166.806 194 171.5 194Z" fill="#3F3D56"/>
<path d="M238 194C242.418 194 246 190.418 246 186C246 181.582 242.418 178 238 178C233.582 178 230 181.582 230 186C230 190.418 233.582 194 238 194Z" fill="#3F3D56"/>
<path d="M189.5 207C190.881 207 192 205.881 192 204.5C192 203.119 190.881 202 189.5 202C188.119 202 187 203.119 187 204.5C187 205.881 188.119 207 189.5 207Z" fill="#6C63FF"/>
<path d="M188.879 204.076C184.084 206.33 180.91 210.919 175.873 212.891C170.74 214.894 165.098 215.002 159.897 213.199C158.999 212.891 158.614 214.357 159.507 214.663C164.716 216.46 170.348 216.445 175.548 214.622C178.007 213.755 180.316 212.485 182.386 210.86C184.788 208.972 186.834 206.696 189.619 205.387C190.478 204.983 189.733 203.674 188.879 204.076Z" fill="#6C63FF"/>
<path d="M190.088 203.013C187.658 203.621 185.315 204.583 183.122 205.872C180.598 207.195 177.879 208.025 175.09 208.325C169.798 208.824 164.505 207.37 160.069 204.198C159.283 203.641 158.553 205.007 159.335 205.561C163.777 208.726 169.034 210.268 174.34 209.962C176.914 209.817 179.451 209.221 181.85 208.195C184.741 206.943 187.366 205.117 190.474 204.536C191.395 204.364 191.005 202.842 190.088 203.013V203.013Z" fill="#6C63FF"/>
<path d="M188.762 202.211C185.103 205.835 183.582 211.068 179.701 214.575C175.523 218.347 170.206 220.443 164.695 220.492C164.508 220.498 164.332 220.58 164.202 220.721C164.072 220.862 164 221.05 164 221.246C164 221.441 164.072 221.63 164.202 221.77C164.332 221.911 164.508 221.993 164.695 222C170.03 221.959 175.209 220.105 179.456 216.717C181.375 215.189 183.061 213.365 184.456 211.305C186.265 208.618 187.464 205.57 189.779 203.278C190.453 202.61 189.435 201.545 188.762 202.211H188.762Z" fill="#6C63FF"/>
<path d="M215.5 207C216.881 207 218 205.881 218 204.5C218 203.119 216.881 202 215.5 202C214.119 202 213 203.119 213 204.5C213 205.881 214.119 207 215.5 207Z" fill="#6C63FF"/>
<path d="M215.381 205.386C218.136 206.681 220.172 208.919 222.54 210.799C224.629 212.45 226.964 213.74 229.452 214.619C234.651 216.446 240.285 216.461 245.493 214.66C246.385 214.355 246.003 212.888 245.103 213.196C239.902 215 234.26 214.891 229.128 212.889C224.09 210.914 220.917 206.33 216.121 204.075C215.268 203.675 214.522 204.983 215.381 205.386Z" fill="#6C63FF"/>
<path d="M214.526 204.536C217.513 205.094 220.038 206.804 222.801 208.043C225.303 209.157 227.96 209.806 230.661 209.962C235.966 210.268 241.224 208.726 245.666 205.561C246.446 205.008 245.718 203.64 244.932 204.198C240.498 207.376 235.203 208.831 229.91 208.325C227.122 208.018 224.405 207.188 221.878 205.872C219.685 204.585 217.342 203.623 214.912 203.013C213.997 202.842 213.604 204.363 214.526 204.536V204.536Z" fill="#6C63FF"/>
<path d="M214.23 203.278C216.631 205.567 217.877 208.622 219.757 211.305C221.207 213.364 222.958 215.189 224.95 216.717C229.36 220.105 234.738 221.959 240.278 222C240.472 221.993 240.655 221.911 240.79 221.77C240.925 221.63 241 221.441 241 221.246C241 221.05 240.925 220.862 240.79 220.721C240.655 220.58 240.472 220.498 240.278 220.492C234.554 220.449 229.031 218.352 224.696 214.575C220.682 211.055 219.085 205.833 215.286 202.211C214.587 201.545 213.53 202.61 214.23 203.278V203.278Z" fill="#6C63FF"/>
<path d="M171.5 414C182.27 414 191 408.851 191 402.5C191 396.149 182.27 391 171.5 391C160.73 391 152 396.149 152 402.5C152 408.851 160.73 414 171.5 414Z" fill="#3F3D56"/>
<path d="M238 414C249.046 414 258 408.851 258 402.5C258 396.149 249.046 391 238 391C226.954 391 218 396.149 218 402.5C218 408.851 226.954 414 238 414Z" fill="#3F3D56"/>
<path d="M202.5 214C211.613 214 219 209.747 219 204.5C219 199.253 211.613 195 202.5 195C193.387 195 186 199.253 186 204.5C186 209.747 193.387 214 202.5 214Z" fill="#6C63FF"/>
<path d="M106.672 298V310H105.219V298H106.672ZM112.5 310.156C111.911 310.156 111.378 310.057 110.898 309.859C110.424 309.656 110.016 309.372 109.672 309.008C109.333 308.643 109.073 308.211 108.891 307.711C108.708 307.211 108.617 306.664 108.617 306.07V305.742C108.617 305.055 108.719 304.443 108.922 303.906C109.125 303.365 109.401 302.906 109.75 302.531C110.099 302.156 110.495 301.872 110.938 301.68C111.38 301.487 111.839 301.391 112.312 301.391C112.917 301.391 113.438 301.495 113.875 301.703C114.318 301.911 114.68 302.203 114.961 302.578C115.242 302.948 115.451 303.385 115.586 303.891C115.721 304.391 115.789 304.938 115.789 305.531V306.18H109.477V305H114.344V304.891C114.323 304.516 114.245 304.151 114.109 303.797C113.979 303.443 113.771 303.151 113.484 302.922C113.198 302.693 112.807 302.578 112.312 302.578C111.984 302.578 111.682 302.648 111.406 302.789C111.13 302.924 110.893 303.128 110.695 303.398C110.497 303.669 110.344 304 110.234 304.391C110.125 304.781 110.07 305.232 110.07 305.742V306.07C110.07 306.471 110.125 306.849 110.234 307.203C110.349 307.552 110.513 307.859 110.727 308.125C110.945 308.391 111.208 308.599 111.516 308.75C111.828 308.901 112.182 308.977 112.578 308.977C113.089 308.977 113.521 308.872 113.875 308.664C114.229 308.456 114.539 308.177 114.805 307.828L115.68 308.523C115.497 308.799 115.266 309.062 114.984 309.312C114.703 309.562 114.357 309.766 113.945 309.922C113.539 310.078 113.057 310.156 112.5 310.156ZM121.016 301.547V302.656H116.445V301.547H121.016ZM117.992 299.492H119.438V307.906C119.438 308.193 119.482 308.409 119.57 308.555C119.659 308.701 119.773 308.797 119.914 308.844C120.055 308.891 120.206 308.914 120.367 308.914C120.487 308.914 120.612 308.904 120.742 308.883C120.878 308.857 120.979 308.836 121.047 308.82L121.055 310C120.94 310.036 120.789 310.07 120.602 310.102C120.419 310.138 120.198 310.156 119.938 310.156C119.583 310.156 119.258 310.086 118.961 309.945C118.664 309.805 118.427 309.57 118.25 309.242C118.078 308.909 117.992 308.461 117.992 307.898V299.492Z" fill="#03F9EA"/>
<path d="M132.086 303.227V310H130.633V301.547H132.008L132.086 303.227ZM131.789 305.453L131.117 305.43C131.122 304.852 131.198 304.318 131.344 303.828C131.49 303.333 131.706 302.904 131.992 302.539C132.279 302.174 132.635 301.893 133.062 301.695C133.49 301.492 133.984 301.391 134.547 301.391C134.943 301.391 135.307 301.448 135.641 301.562C135.974 301.672 136.263 301.846 136.508 302.086C136.753 302.326 136.943 302.633 137.078 303.008C137.214 303.383 137.281 303.836 137.281 304.367V310H135.836V304.438C135.836 303.995 135.76 303.641 135.609 303.375C135.464 303.109 135.255 302.917 134.984 302.797C134.714 302.672 134.396 302.609 134.031 302.609C133.604 302.609 133.247 302.685 132.961 302.836C132.674 302.987 132.445 303.195 132.273 303.461C132.102 303.727 131.977 304.031 131.898 304.375C131.826 304.714 131.789 305.073 131.789 305.453ZM137.266 304.656L136.297 304.953C136.302 304.49 136.378 304.044 136.523 303.617C136.674 303.19 136.891 302.81 137.172 302.477C137.458 302.143 137.81 301.88 138.227 301.688C138.643 301.49 139.12 301.391 139.656 301.391C140.109 301.391 140.51 301.451 140.859 301.57C141.214 301.69 141.51 301.875 141.75 302.125C141.995 302.37 142.18 302.685 142.305 303.07C142.43 303.456 142.492 303.914 142.492 304.445V310H141.039V304.43C141.039 303.956 140.964 303.589 140.812 303.328C140.667 303.062 140.458 302.878 140.188 302.773C139.922 302.664 139.604 302.609 139.234 302.609C138.917 302.609 138.635 302.664 138.391 302.773C138.146 302.883 137.94 303.034 137.773 303.227C137.607 303.414 137.479 303.63 137.391 303.875C137.307 304.12 137.266 304.38 137.266 304.656ZM147.055 309.125L149.406 301.547H150.953L147.562 311.305C147.484 311.513 147.38 311.737 147.25 311.977C147.125 312.221 146.964 312.453 146.766 312.672C146.568 312.891 146.328 313.068 146.047 313.203C145.771 313.344 145.44 313.414 145.055 313.414C144.94 313.414 144.794 313.398 144.617 313.367C144.44 313.336 144.315 313.31 144.242 313.289L144.234 312.117C144.276 312.122 144.341 312.128 144.43 312.133C144.523 312.143 144.589 312.148 144.625 312.148C144.953 312.148 145.232 312.104 145.461 312.016C145.69 311.932 145.883 311.789 146.039 311.586C146.201 311.388 146.339 311.115 146.453 310.766L147.055 309.125ZM145.328 301.547L147.523 308.109L147.898 309.633L146.859 310.164L143.75 301.547H145.328ZM161.227 298.625V310H159.711L153.984 301.227V310H152.477V298.625H153.984L159.734 307.422V298.625H161.227ZM168.664 308.555V304.203C168.664 303.87 168.596 303.581 168.461 303.336C168.331 303.086 168.133 302.893 167.867 302.758C167.602 302.622 167.273 302.555 166.883 302.555C166.518 302.555 166.198 302.617 165.922 302.742C165.651 302.867 165.438 303.031 165.281 303.234C165.13 303.438 165.055 303.656 165.055 303.891H163.609C163.609 303.589 163.688 303.289 163.844 302.992C164 302.695 164.224 302.427 164.516 302.188C164.812 301.943 165.167 301.75 165.578 301.609C165.995 301.464 166.458 301.391 166.969 301.391C167.583 301.391 168.125 301.495 168.594 301.703C169.068 301.911 169.438 302.227 169.703 302.648C169.974 303.065 170.109 303.589 170.109 304.219V308.156C170.109 308.438 170.133 308.737 170.18 309.055C170.232 309.372 170.307 309.646 170.406 309.875V310H168.898C168.826 309.833 168.768 309.612 168.727 309.336C168.685 309.055 168.664 308.794 168.664 308.555ZM168.914 304.875L168.93 305.891H167.469C167.057 305.891 166.69 305.924 166.367 305.992C166.044 306.055 165.773 306.151 165.555 306.281C165.336 306.411 165.169 306.576 165.055 306.773C164.94 306.966 164.883 307.193 164.883 307.453C164.883 307.719 164.943 307.961 165.062 308.18C165.182 308.398 165.362 308.573 165.602 308.703C165.846 308.828 166.146 308.891 166.5 308.891C166.943 308.891 167.333 308.797 167.672 308.609C168.01 308.422 168.279 308.193 168.477 307.922C168.68 307.651 168.789 307.388 168.805 307.133L169.422 307.828C169.385 308.047 169.286 308.289 169.125 308.555C168.964 308.82 168.747 309.076 168.477 309.32C168.211 309.56 167.893 309.76 167.523 309.922C167.159 310.078 166.747 310.156 166.289 310.156C165.716 310.156 165.214 310.044 164.781 309.82C164.354 309.596 164.021 309.297 163.781 308.922C163.547 308.542 163.43 308.117 163.43 307.648C163.43 307.195 163.518 306.797 163.695 306.453C163.872 306.104 164.128 305.815 164.461 305.586C164.794 305.352 165.195 305.174 165.664 305.055C166.133 304.935 166.656 304.875 167.234 304.875H168.914ZM173.82 303.227V310H172.367V301.547H173.742L173.82 303.227ZM173.523 305.453L172.852 305.43C172.857 304.852 172.932 304.318 173.078 303.828C173.224 303.333 173.44 302.904 173.727 302.539C174.013 302.174 174.37 301.893 174.797 301.695C175.224 301.492 175.719 301.391 176.281 301.391C176.677 301.391 177.042 301.448 177.375 301.562C177.708 301.672 177.997 301.846 178.242 302.086C178.487 302.326 178.677 302.633 178.812 303.008C178.948 303.383 179.016 303.836 179.016 304.367V310H177.57V304.438C177.57 303.995 177.495 303.641 177.344 303.375C177.198 303.109 176.99 302.917 176.719 302.797C176.448 302.672 176.13 302.609 175.766 302.609C175.339 302.609 174.982 302.685 174.695 302.836C174.409 302.987 174.18 303.195 174.008 303.461C173.836 303.727 173.711 304.031 173.633 304.375C173.56 304.714 173.523 305.073 173.523 305.453ZM179 304.656L178.031 304.953C178.036 304.49 178.112 304.044 178.258 303.617C178.409 303.19 178.625 302.81 178.906 302.477C179.193 302.143 179.544 301.88 179.961 301.688C180.378 301.49 180.854 301.391 181.391 301.391C181.844 301.391 182.245 301.451 182.594 301.57C182.948 301.69 183.245 301.875 183.484 302.125C183.729 302.37 183.914 302.685 184.039 303.07C184.164 303.456 184.227 303.914 184.227 304.445V310H182.773V304.43C182.773 303.956 182.698 303.589 182.547 303.328C182.401 303.062 182.193 302.878 181.922 302.773C181.656 302.664 181.339 302.609 180.969 302.609C180.651 302.609 180.37 302.664 180.125 302.773C179.88 302.883 179.674 303.034 179.508 303.227C179.341 303.414 179.214 303.63 179.125 303.875C179.042 304.12 179 304.38 179 304.656ZM189.922 310.156C189.333 310.156 188.799 310.057 188.32 309.859C187.846 309.656 187.438 309.372 187.094 309.008C186.755 308.643 186.495 308.211 186.312 307.711C186.13 307.211 186.039 306.664 186.039 306.07V305.742C186.039 305.055 186.141 304.443 186.344 303.906C186.547 303.365 186.823 302.906 187.172 302.531C187.521 302.156 187.917 301.872 188.359 301.68C188.802 301.487 189.26 301.391 189.734 301.391C190.339 301.391 190.859 301.495 191.297 301.703C191.74 301.911 192.102 302.203 192.383 302.578C192.664 302.948 192.872 303.385 193.008 303.891C193.143 304.391 193.211 304.938 193.211 305.531V306.18H186.898V305H191.766V304.891C191.745 304.516 191.667 304.151 191.531 303.797C191.401 303.443 191.193 303.151 190.906 302.922C190.62 302.693 190.229 302.578 189.734 302.578C189.406 302.578 189.104 302.648 188.828 302.789C188.552 302.924 188.315 303.128 188.117 303.398C187.919 303.669 187.766 304 187.656 304.391C187.547 304.781 187.492 305.232 187.492 305.742V306.07C187.492 306.471 187.547 306.849 187.656 307.203C187.771 307.552 187.935 307.859 188.148 308.125C188.367 308.391 188.63 308.599 188.938 308.75C189.25 308.901 189.604 308.977 190 308.977C190.51 308.977 190.943 308.872 191.297 308.664C191.651 308.456 191.961 308.177 192.227 307.828L193.102 308.523C192.919 308.799 192.688 309.062 192.406 309.312C192.125 309.562 191.779 309.766 191.367 309.922C190.961 310.078 190.479 310.156 189.922 310.156ZM198.805 309.234C198.805 308.99 198.88 308.784 199.031 308.617C199.188 308.445 199.411 308.359 199.703 308.359C199.995 308.359 200.216 308.445 200.367 308.617C200.523 308.784 200.602 308.99 200.602 309.234C200.602 309.474 200.523 309.677 200.367 309.844C200.216 310.01 199.995 310.094 199.703 310.094C199.411 310.094 199.188 310.01 199.031 309.844C198.88 309.677 198.805 309.474 198.805 309.234ZM198.812 302.336C198.812 302.091 198.888 301.885 199.039 301.719C199.195 301.547 199.419 301.461 199.711 301.461C200.003 301.461 200.224 301.547 200.375 301.719C200.531 301.885 200.609 302.091 200.609 302.336C200.609 302.576 200.531 302.779 200.375 302.945C200.224 303.112 200.003 303.195 199.711 303.195C199.419 303.195 199.195 303.112 199.039 302.945C198.888 302.779 198.812 302.576 198.812 302.336ZM211.633 307.758C211.633 307.549 211.586 307.357 211.492 307.18C211.404 306.997 211.219 306.833 210.938 306.688C210.661 306.536 210.245 306.406 209.688 306.297C209.219 306.198 208.794 306.081 208.414 305.945C208.039 305.81 207.719 305.646 207.453 305.453C207.193 305.26 206.992 305.034 206.852 304.773C206.711 304.513 206.641 304.208 206.641 303.859C206.641 303.526 206.714 303.211 206.859 302.914C207.01 302.617 207.221 302.354 207.492 302.125C207.768 301.896 208.099 301.716 208.484 301.586C208.87 301.456 209.299 301.391 209.773 301.391C210.451 301.391 211.029 301.51 211.508 301.75C211.987 301.99 212.354 302.31 212.609 302.711C212.865 303.107 212.992 303.547 212.992 304.031H211.547C211.547 303.797 211.477 303.57 211.336 303.352C211.201 303.128 211 302.943 210.734 302.797C210.474 302.651 210.154 302.578 209.773 302.578C209.372 302.578 209.047 302.641 208.797 302.766C208.552 302.885 208.372 303.039 208.258 303.227C208.148 303.414 208.094 303.612 208.094 303.82C208.094 303.977 208.12 304.117 208.172 304.242C208.229 304.362 208.328 304.474 208.469 304.578C208.609 304.677 208.807 304.771 209.062 304.859C209.318 304.948 209.643 305.036 210.039 305.125C210.732 305.281 211.302 305.469 211.75 305.688C212.198 305.906 212.531 306.174 212.75 306.492C212.969 306.81 213.078 307.195 213.078 307.648C213.078 308.018 213 308.357 212.844 308.664C212.693 308.971 212.471 309.237 212.18 309.461C211.893 309.68 211.549 309.852 211.148 309.977C210.753 310.096 210.307 310.156 209.812 310.156C209.068 310.156 208.438 310.023 207.922 309.758C207.406 309.492 207.016 309.148 206.75 308.727C206.484 308.305 206.352 307.859 206.352 307.391H207.805C207.826 307.786 207.94 308.102 208.148 308.336C208.357 308.565 208.612 308.729 208.914 308.828C209.216 308.922 209.516 308.969 209.812 308.969C210.208 308.969 210.539 308.917 210.805 308.812C211.076 308.708 211.281 308.565 211.422 308.383C211.562 308.201 211.633 307.992 211.633 307.758ZM218.516 301.547V302.656H213.945V301.547H218.516ZM215.492 299.492H216.938V307.906C216.938 308.193 216.982 308.409 217.07 308.555C217.159 308.701 217.273 308.797 217.414 308.844C217.555 308.891 217.706 308.914 217.867 308.914C217.987 308.914 218.112 308.904 218.242 308.883C218.378 308.857 218.479 308.836 218.547 308.82L218.555 310C218.44 310.036 218.289 310.07 218.102 310.102C217.919 310.138 217.698 310.156 217.438 310.156C217.083 310.156 216.758 310.086 216.461 309.945C216.164 309.805 215.927 309.57 215.75 309.242C215.578 308.909 215.492 308.461 215.492 307.898V299.492ZM221.656 302.875V310H220.211V301.547H221.617L221.656 302.875ZM224.297 301.5L224.289 302.844C224.169 302.818 224.055 302.802 223.945 302.797C223.841 302.786 223.721 302.781 223.586 302.781C223.253 302.781 222.958 302.833 222.703 302.938C222.448 303.042 222.232 303.188 222.055 303.375C221.878 303.562 221.737 303.786 221.633 304.047C221.534 304.302 221.469 304.583 221.438 304.891L221.031 305.125C221.031 304.615 221.081 304.135 221.18 303.688C221.284 303.24 221.443 302.844 221.656 302.5C221.87 302.151 222.141 301.88 222.469 301.688C222.802 301.49 223.198 301.391 223.656 301.391C223.76 301.391 223.88 301.404 224.016 301.43C224.151 301.451 224.245 301.474 224.297 301.5ZM227.203 301.547V310H225.75V301.547H227.203ZM225.641 299.305C225.641 299.07 225.711 298.872 225.852 298.711C225.997 298.549 226.211 298.469 226.492 298.469C226.768 298.469 226.979 298.549 227.125 298.711C227.276 298.872 227.352 299.07 227.352 299.305C227.352 299.529 227.276 299.721 227.125 299.883C226.979 300.039 226.768 300.117 226.492 300.117C226.211 300.117 225.997 300.039 225.852 299.883C225.711 299.721 225.641 299.529 225.641 299.305ZM230.969 303.352V310H229.523V301.547H230.891L230.969 303.352ZM230.625 305.453L230.023 305.43C230.029 304.852 230.115 304.318 230.281 303.828C230.448 303.333 230.682 302.904 230.984 302.539C231.286 302.174 231.646 301.893 232.062 301.695C232.484 301.492 232.951 301.391 233.461 301.391C233.878 301.391 234.253 301.448 234.586 301.562C234.919 301.672 235.203 301.849 235.438 302.094C235.677 302.339 235.859 302.656 235.984 303.047C236.109 303.432 236.172 303.904 236.172 304.461V310H234.719V304.445C234.719 304.003 234.654 303.648 234.523 303.383C234.393 303.112 234.203 302.917 233.953 302.797C233.703 302.672 233.396 302.609 233.031 302.609C232.672 302.609 232.344 302.685 232.047 302.836C231.755 302.987 231.503 303.195 231.289 303.461C231.081 303.727 230.917 304.031 230.797 304.375C230.682 304.714 230.625 305.073 230.625 305.453ZM243.844 301.547H245.156V309.82C245.156 310.565 245.005 311.201 244.703 311.727C244.401 312.253 243.979 312.651 243.438 312.922C242.901 313.198 242.281 313.336 241.578 313.336C241.286 313.336 240.943 313.289 240.547 313.195C240.156 313.107 239.771 312.953 239.391 312.734C239.016 312.521 238.701 312.232 238.445 311.867L239.203 311.008C239.557 311.435 239.927 311.732 240.312 311.898C240.703 312.065 241.089 312.148 241.469 312.148C241.927 312.148 242.323 312.062 242.656 311.891C242.99 311.719 243.247 311.464 243.43 311.125C243.617 310.792 243.711 310.38 243.711 309.891V303.406L243.844 301.547ZM238.023 305.867V305.703C238.023 305.057 238.099 304.471 238.25 303.945C238.406 303.414 238.628 302.958 238.914 302.578C239.206 302.198 239.557 301.906 239.969 301.703C240.38 301.495 240.844 301.391 241.359 301.391C241.891 301.391 242.354 301.484 242.75 301.672C243.151 301.854 243.49 302.122 243.766 302.477C244.047 302.826 244.268 303.247 244.43 303.742C244.591 304.237 244.703 304.797 244.766 305.422V306.141C244.708 306.76 244.596 307.318 244.43 307.812C244.268 308.307 244.047 308.729 243.766 309.078C243.49 309.427 243.151 309.695 242.75 309.883C242.349 310.065 241.88 310.156 241.344 310.156C240.839 310.156 240.38 310.049 239.969 309.836C239.562 309.622 239.214 309.323 238.922 308.938C238.63 308.552 238.406 308.099 238.25 307.578C238.099 307.052 238.023 306.482 238.023 305.867ZM239.469 305.703V305.867C239.469 306.289 239.51 306.685 239.594 307.055C239.682 307.424 239.815 307.75 239.992 308.031C240.174 308.312 240.406 308.534 240.688 308.695C240.969 308.852 241.305 308.93 241.695 308.93C242.174 308.93 242.57 308.828 242.883 308.625C243.195 308.422 243.443 308.154 243.625 307.82C243.812 307.487 243.958 307.125 244.062 306.734V304.852C244.005 304.565 243.917 304.289 243.797 304.023C243.682 303.753 243.531 303.513 243.344 303.305C243.161 303.091 242.935 302.922 242.664 302.797C242.393 302.672 242.076 302.609 241.711 302.609C241.315 302.609 240.974 302.693 240.688 302.859C240.406 303.021 240.174 303.245 239.992 303.531C239.815 303.812 239.682 304.141 239.594 304.516C239.51 304.885 239.469 305.281 239.469 305.703ZM257.922 302.383V303.641H251.406V302.383H257.922ZM257.922 305.625V306.883H251.406V305.625H257.922Z" fill="white"/>
<path d="M263.789 301.617V300.672C263.789 300.354 263.841 300.023 263.945 299.68C264.055 299.331 264.211 298.997 264.414 298.68C264.617 298.357 264.862 298.078 265.148 297.844L265.969 298.414C265.729 298.758 265.544 299.112 265.414 299.477C265.284 299.836 265.219 300.227 265.219 300.648V301.617H263.789ZM266.25 301.617V300.672C266.25 300.354 266.302 300.023 266.406 299.68C266.516 299.331 266.672 298.997 266.875 298.68C267.078 298.357 267.323 298.078 267.609 297.844L268.43 298.414C268.19 298.758 268.005 299.112 267.875 299.477C267.745 299.836 267.68 300.227 267.68 300.648V301.617H266.25ZM271.453 298.625V310H269.945V298.625H271.453ZM278.32 298.625L273.594 303.93L270.938 306.688L270.688 305.078L272.688 302.875L276.508 298.625H278.32ZM276.867 310L272.656 304.453L273.555 303.258L278.664 310H276.867ZM281.344 301.547V310H279.891V301.547H281.344ZM279.781 299.305C279.781 299.07 279.852 298.872 279.992 298.711C280.138 298.549 280.352 298.469 280.633 298.469C280.909 298.469 281.12 298.549 281.266 298.711C281.417 298.872 281.492 299.07 281.492 299.305C281.492 299.529 281.417 299.721 281.266 299.883C281.12 300.039 280.909 300.117 280.633 300.117C280.352 300.117 280.138 300.039 279.992 299.883C279.852 299.721 279.781 299.529 279.781 299.305ZM287.203 301.547V302.656H282.633V301.547H287.203ZM284.18 299.492H285.625V307.906C285.625 308.193 285.669 308.409 285.758 308.555C285.846 308.701 285.961 308.797 286.102 308.844C286.242 308.891 286.393 308.914 286.555 308.914C286.674 308.914 286.799 308.904 286.93 308.883C287.065 308.857 287.167 308.836 287.234 308.82L287.242 310C287.128 310.036 286.977 310.07 286.789 310.102C286.607 310.138 286.385 310.156 286.125 310.156C285.771 310.156 285.445 310.086 285.148 309.945C284.852 309.805 284.615 309.57 284.438 309.242C284.266 308.909 284.18 308.461 284.18 307.898V299.492ZM292.438 301.547V302.656H287.867V301.547H292.438ZM289.414 299.492H290.859V307.906C290.859 308.193 290.904 308.409 290.992 308.555C291.081 308.701 291.195 308.797 291.336 308.844C291.477 308.891 291.628 308.914 291.789 308.914C291.909 308.914 292.034 308.904 292.164 308.883C292.299 308.857 292.401 308.836 292.469 308.82L292.477 310C292.362 310.036 292.211 310.07 292.023 310.102C291.841 310.138 291.62 310.156 291.359 310.156C291.005 310.156 290.68 310.086 290.383 309.945C290.086 309.805 289.849 309.57 289.672 309.242C289.5 308.909 289.414 308.461 289.414 307.898V299.492ZM296.508 309.125L298.859 301.547H300.406L297.016 311.305C296.938 311.513 296.833 311.737 296.703 311.977C296.578 312.221 296.417 312.453 296.219 312.672C296.021 312.891 295.781 313.068 295.5 313.203C295.224 313.344 294.893 313.414 294.508 313.414C294.393 313.414 294.247 313.398 294.07 313.367C293.893 313.336 293.768 313.31 293.695 313.289L293.688 312.117C293.729 312.122 293.794 312.128 293.883 312.133C293.977 312.143 294.042 312.148 294.078 312.148C294.406 312.148 294.685 312.104 294.914 312.016C295.143 311.932 295.336 311.789 295.492 311.586C295.654 311.388 295.792 311.115 295.906 310.766L296.508 309.125ZM294.781 301.547L296.977 308.109L297.352 309.633L296.312 310.164L293.203 301.547H294.781ZM303.391 298V299C303.391 299.312 303.336 299.643 303.227 299.992C303.122 300.336 302.969 300.669 302.766 300.992C302.562 301.31 302.318 301.589 302.031 301.828L301.203 301.258C301.448 300.914 301.633 300.562 301.758 300.203C301.888 299.839 301.953 299.445 301.953 299.023V298H303.391ZM305.789 298V299C305.789 299.312 305.734 299.643 305.625 299.992C305.521 300.336 305.367 300.669 305.164 300.992C304.961 301.31 304.716 301.589 304.43 301.828L303.602 301.258C303.846 300.914 304.031 300.562 304.156 300.203C304.286 299.839 304.352 299.445 304.352 299.023V298H305.789Z" fill="#03FF0D"/>
<path d="M353.279 142.725C352.573 142.725 352 143.255 352 143.909C352 144.563 352.573 145.093 353.279 145.093H356.675V185.455C356.675 190.166 360.816 194 365.91 194C371.004 194 375.145 190.168 375.145 185.455V145.093H378.541C379.247 145.093 379.82 144.563 379.82 143.909C379.82 143.255 379.247 142.725 378.541 142.725H373.866H357.954H353.279ZM372.586 145.093V185.455C372.586 188.861 369.591 191.632 365.91 191.632C362.229 191.632 359.234 188.861 359.234 185.455V145.093H372.586ZM408.719 142.725H404.044H388.132H383.459C382.753 142.725 382.18 143.255 382.18 143.909C382.18 144.563 382.753 145.093 383.459 145.093H386.855V185.455C386.855 190.166 390.996 194 396.09 194C401.184 194 405.325 190.168 405.325 185.455V145.093H408.721C409.427 145.093 410 144.563 410 143.909C410 143.255 409.425 142.725 408.719 142.725ZM396.09 191.631C392.409 191.631 389.414 188.859 389.414 185.453V158.012L402.766 152.254V185.453C402.766 188.859 399.771 191.631 396.09 191.631ZM402.766 149.642L389.414 155.4V145.093H402.766V149.642ZM364.353 178.378C366.258 178.378 367.807 176.943 367.807 175.182C367.807 173.421 366.256 171.986 364.353 171.986C362.45 171.986 360.899 173.421 360.899 175.182C360.899 176.943 362.448 178.378 364.353 178.378ZM364.353 174.351C364.847 174.351 365.251 174.725 365.251 175.182C365.251 175.639 364.847 176.012 364.353 176.012C363.859 176.012 363.456 175.639 363.456 175.182C363.456 174.725 363.859 174.351 364.353 174.351ZM368.085 167.118C369.99 167.118 371.539 165.683 371.539 163.922C371.539 162.161 369.988 160.726 368.085 160.726C366.182 160.726 364.631 162.161 364.631 163.922C364.631 165.683 366.18 167.118 368.085 167.118ZM368.085 163.091C368.579 163.091 368.983 163.465 368.983 163.922C368.983 164.379 368.579 164.752 368.085 164.752C367.591 164.752 367.187 164.379 367.187 163.922C367.187 163.465 367.591 163.091 368.085 163.091ZM358.722 135.408C358.722 137.171 360.273 138.604 362.176 138.604C364.079 138.604 365.63 137.169 365.63 135.408C365.63 133.647 364.079 132.212 362.176 132.212C360.273 132.212 358.722 133.645 358.722 135.408ZM363.074 135.408C363.074 135.865 362.67 136.238 362.176 136.238C361.682 136.238 361.279 135.865 361.279 135.408C361.279 134.951 361.682 134.577 362.176 134.577C362.67 134.577 363.074 134.951 363.074 135.408ZM367.522 130.392C369.427 130.392 370.976 128.957 370.976 127.196C370.976 125.435 369.425 124 367.522 124C365.619 124 364.068 125.435 364.068 127.196C364.068 128.957 365.617 130.392 367.522 130.392ZM367.522 126.368C368.016 126.368 368.42 126.741 368.42 127.198C368.42 127.655 368.016 128.028 367.522 128.028C367.028 128.028 366.624 127.655 366.624 127.198C366.624 126.741 367.028 126.368 367.522 126.368Z" fill="black"/>
</svg>
